<?xml version="1.0" encoding="utf-8"?>
<!-- Generator: Adobe Illustrator 18.1.1, SVG Export Plug-In . SVG Version: 6.00 Build 0)  -->
<svg version="1.1" xmlns="http://www.w3.org/2000/svg" xmlns:xlink="http://www.w3.org/1999/xlink" x="0px" y="0px"
	 viewBox="0 0 44.7 43.8" enable-background="new 0 0 44.7 43.8" xml:space="preserve">
<g id="Layer_1">
	<g>
		<g>
			<g>
				<path fill="none" stroke="#f8f7bb" stroke-width="2" stroke-miterlimit="10" d="M29,33.3c0,1.5-1.2,2.7-2.7,2.7H3.7
					C2.2,36,1,34.8,1,33.3V3.7C1,2.2,2.2,1,3.7,1h22.6C27.8,1,29,2.2,29,3.7V33.3z"/>
			</g>
			<rect x="6" y="5" fill="none" stroke="#f8f7bb" stroke-width="2" stroke-miterlimit="10" width="18" height="20"/>
			<g>
				<path fill="none" stroke="#f8f7bb" stroke-width="1.8311" stroke-miterlimit="10" d="M31.3,5.8l10.8,4.8c1.4,0.6,2,2.2,1.4,3.5
					L31.6,41.2c-0.6,1.4-2.2,2-3.5,1.4l-7.4-3.2"/>
			</g>
			<polyline fill="none" stroke="#f8f7bb" stroke-width="2.1974" stroke-miterlimit="10" points="30.2,10 39,13.8 31.3,31.3 			"/>
		</g>
	</g>
</g>
<g id="specctr">
	<g id="Object_Properties">
	</g>
	<g id="Text_Properties">
	</g>
</g>
</svg>
